<?xml version="1.0" standalone="no"?>
<!DOCTYPE svg PUBLIC "-//W3C//DTD SVG 20010904//EN"
 "http://www.w3.org/TR/2001/REC-SVG-20010904/DTD/svg10.dtd">
<svg version="1.0" xmlns="http://www.w3.org/2000/svg"
 width="541.000000pt" height="541.000000pt" viewBox="0 0 541.000000 541.000000"
 preserveAspectRatio="xMidYMid meet">
<metadata>
Created by potrace 1.14, written by Peter Selinger 2001-2017
</metadata>
<g transform="translate(0.000000,541.000000) scale(0.100000,-0.100000)"
fill="#000000" stroke="none">
<path d="M2480 5206 c-36 -18 -89 -47 -118 -65 -29 -17 -57 -31 -62 -31 -6 0
-10 -4 -10 -10 0 -5 -3 -9 -7 -8 -10 2 -44 -13 -58 -24 -5 -5 -45 -31 -87 -59
-43 -28 -78 -54 -78 -60 0 -5 -6 -9 -13 -9 -7 0 -20 -8 -29 -17 -9 -10 -23
-23 -30 -29 -7 -6 -24 -26 -38 -44 -14 -18 -30 -39 -37 -45 -21 -22 -62 -117
-69 -159 -10 -68 -13 -260 -3 -278 5 -9 6 -19 1 -22 -4 -2 -9 -19 -10 -37 -1
-17 -12 -45 -23 -60 -11 -16 -17 -29 -12 -29 4 0 3 -4 -3 -8 -22 -15 -31 -71
-30 -198 1 -122 0 -130 -16 -120 -10 6 -18 14 -18 18 0 15 -37 8 -52 -9 -16
-19 -37 -85 -62 -198 -9 -38 -27 -117 -40 -175 -23 -105 -25 -122 -30 -467 -2
-151 -1 -165 18 -192 21 -29 83 -71 105 -71 6 0 32 -10 57 -22 82 -38 92 -98
28 -172 l-25 -29 -137 2 c-75 1 -233 3 -350 5 l-212 3 0 -32 c0 -33 2 -35 65
-51 6 -1 64 -20 130 -42 66 -21 153 -49 193 -62 39 -12 72 -25 73 -29 6 -37 4
-1410 -2 -1422 -6 -13 -20 -16 -51 -14 -24 2 -49 -2 -57 -8 -12 -9 -13 -9 -7
0 5 9 -2 12 -26 12 -98 -4 -126 1 -131 21 -3 11 -2 22 1 24 5 3 7 356 3 448
-1 10 -13 31 -28 48 l-28 31 -410 6 c-225 3 -468 6 -540 7 l-130 1 -3 -29 c-2
-16 2 -32 10 -37 10 -7 102 -38 128 -44 3 0 34 -10 70 -22 157 -51 417 -133
440 -138 l25 -6 -2 -262 c-2 -153 2 -281 8 -307 12 -55 53 -102 136 -157 l63
-41 187 -2 c104 -1 278 -3 388 -5 189 -3 203 -2 244 18 59 29 122 95 157 165
l29 57 3 413 c2 226 6 412 10 411 4 0 23 -32 42 -72 19 -40 49 -86 68 -103 18
-17 33 -40 34 -50 0 -11 -3 -154 -6 -319 -4 -165 -9 -420 -11 -567 l-4 -268
82 -1 c200 -3 199 -3 218 22 13 18 17 42 17 94 0 38 1 145 2 237 l3 167 33 11
c52 17 107 26 129 20 43 -11 74 4 160 78 50 42 106 90 124 105 l33 28 4 136
c2 75 6 138 8 141 4 4 123 -75 157 -104 8 -8 22 -14 29 -14 8 0 71 36 141 80
121 77 146 90 135 72 -3 -5 16 -10 42 -11 26 -2 63 -4 82 -6 19 -2 54 -3 78
-4 l43 -1 -3 -200 c-3 -129 0 -204 7 -212 7 -8 6 -9 -2 -4 -9 5 -12 -11 -12
-61 0 -37 0 -102 0 -144 l-1 -77 -56 -4 c-41 -4 -61 -10 -71 -24 -7 -10 -20
-27 -28 -36 -7 -9 -22 -29 -32 -45 -10 -15 -23 -35 -30 -43 -7 -8 -26 -33 -42
-55 -17 -22 -36 -46 -42 -53 -30 -35 -10 -37 367 -36 203 0 378 4 389 7 37 12
52 55 50 146 -1 80 -2 85 -30 107 -19 15 -44 24 -70 25 -73 3 -83 4 -91 12 -7
7 -8 153 -1 375 2 44 -1 72 -8 72 -6 0 -7 3 0 8 15 11 17 94 2 85 -9 -5 -9 -3
-1 8 8 9 12 77 13 194 1 176 1 181 -22 209 -18 23 -34 30 -63 32 -21 1 -41 3
-44 3 -9 2 153 101 164 101 2 0 9 -26 15 -57 7 -32 17 -69 21 -83 5 -14 11
-43 15 -65 l6 -40 68 3 69 4 26 51 c51 100 93 171 104 175 5 1 26 -11 46 -29
l36 -31 -69 -50 c-72 -50 -136 -116 -151 -155 -5 -12 -11 -176 -14 -366 -5
-305 -4 -349 11 -388 17 -45 71 -129 83 -129 3 0 15 -8 26 -18 56 -52 63 -52
679 -56 l250 -1 55 36 c68 45 108 84 124 124 8 19 13 93 15 205 1 96 4 252 6
345 2 97 0 187 -6 209 -8 29 -36 64 -115 143 -99 100 -117 123 -94 123 28 0
177 134 200 180 24 48 36 115 18 104 -10 -6 -10 -4 -2 7 6 9 10 87 9 219 -1
223 -3 233 -63 297 -16 17 -63 48 -103 67 l-74 36 -237 0 c-225 0 -240 1 -285
23 -27 12 -49 25 -51 30 -2 4 -9 7 -15 7 -7 0 -28 15 -48 33 -106 95 -82 188
64 243 86 33 86 33 92 67 3 15 7 39 10 55 6 33 8 459 2 470 -3 4 -8 36 -11 72
-15 142 -26 191 -72 323 -44 123 -64 163 -64 124 0 -8 -11 -24 -25 -37 l-24
-23 2 154 c1 153 1 155 -29 214 -30 60 -30 60 -28 215 3 173 -6 230 -56 334
-34 71 -115 166 -170 201 -20 13 -72 42 -116 66 -43 23 -95 53 -114 66 -19 13
-40 23 -47 23 -7 0 -13 3 -13 8 0 13 -73 42 -155 62 -93 23 -98 23 -90 10 3
-6 10 -31 15 -58 4 -26 11 -58 14 -72 13 -56 62 -289 70 -330 3 -14 7 -34 9
-45 2 -11 8 -38 12 -60 5 -22 9 -44 11 -50 18 -64 41 -204 45 -272 1 -18 6
-33 11 -33 5 0 6 -6 1 -12 -4 -7 -8 -31 -8 -53 -2 -54 -14 -93 -42 -139 l-25
-38 -17 38 c-10 22 -28 67 -40 101 -12 35 -33 87 -47 117 -27 60 -101 145
-127 147 -19 2 -18 1 -77 18 -25 7 -49 14 -55 15 -5 1 -30 12 -55 23 -25 12
-69 32 -97 45 -29 12 -53 26 -53 30 0 5 -8 8 -18 8 -10 0 -23 5 -29 11 -8 8
-25 6 -65 -7 -29 -10 -57 -19 -63 -20 -5 -1 -62 -21 -125 -43 -63 -23 -124
-44 -135 -46 -11 -3 -29 -9 -40 -14 -11 -5 -35 -15 -53 -21 -62 -24 -115 -87
-145 -175 -15 -44 -41 -113 -56 -154 l-29 -75 -20 45 c-57 126 -56 149 3 419
26 118 49 226 52 240 2 14 9 45 14 70 6 25 12 54 15 65 2 11 9 44 15 72 5 29
10 54 10 55 0 2 9 39 20 83 30 124 30 126 18 141 -17 21 -37 17 -109 -20z
m1750 -3160 c0 -2 -9 -2 -20 1 -11 3 -20 9 -20 15 0 5 9 4 20 -2 11 -6 20 -12
20 -14z m682 -44 c21 -21 23 -31 23 -142 0 -73 -4 -120 -10 -121 -14 -2 -24
-3 -75 -13 -25 -5 -67 -19 -95 -31 -61 -28 -132 -55 -144 -55 -5 0 -7 51 -6
113 2 61 3 142 4 179 1 43 6 72 15 81 11 10 44 14 140 13 117 -1 127 -3 148
-24z m-2495 -475 c78 -53 139 -98 135 -99 -4 -2 -25 -3 -47 -2 -22 1 -102 3
-177 4 -125 2 -137 3 -129 18 5 10 10 22 10 27 1 6 3 17 6 25 2 8 11 41 20 73
10 35 21 57 28 54 7 -3 76 -48 154 -100z m2458 -237 c17 -6 36 -21 42 -33 14
-32 7 -426 -8 -444 -10 -11 -40 -13 -143 -11 -186 3 -178 -8 -174 239 4 186 5
192 27 210 13 11 31 19 42 19 10 0 21 5 24 10 4 6 10 8 15 5 5 -3 11 -2 13 2
8 13 126 15 162 3z m-2335 -143 l65 -3 3 -80 3 -81 -53 -6 c-53 -5 -99 -24
-150 -59 -14 -10 -32 -18 -40 -17 -7 0 -3 5 9 11 29 14 35 33 38 139 2 48 6
92 9 97 3 5 16 8 28 6 13 -3 52 -5 88 -7z"/>
</g>
</svg>
